#!OML:ASF I:\Actors\actors\Patient Classification 1\Patient 1\Session 1\Subject1.ASF
:FULLY-SPECIFIED
:DEGREES
128
root 0.62952 17.4983 9.36338 11.0095 -2.98741 -8.27148
lowerback -1.10038 0.873208 6.86658
upperback -9.96034 1.49334 0.220097
thorax -9.83388 0.157135 -3.70451
lowerneck -2.13813 -14.4747 -12.1388
upperneck 17.8196 -21.5656 12.543
head 8.59455 -10.3222 3.89471
rclavicle 4.87022e-015 2.38542e-015
rhumerus -55.3173 -45.0347 -47.5488
rradius 25.9707
rwrist 41.4917
rhand 8.88076 -33.9031
rfingers 7.12502
rthumb 34.064 -60.6727
lclavicle 4.87022e-015 2.38542e-015
lhumerus -52.9102 39.3374 49.5715
lradius 25.6435
lwrist -16.6011
lhand -15.7127 -5.3239
lfingers 7.12502
lthumb 10.4773 24.395
rfemur -6.26515 26.5869 23.7395
rtibia 2.13095
rfoot -10.4943 -23.8288
rtoes 1.35603
lfemur 5.04778 -48.253 -13.0752
ltibia -4.41103
lfoot -28.0182 56.1415
ltoes 13.6285
129
root 0.63621 17.4981 9.36315 11.1099 -3.35641 -8.34467
lowerback -1.12532 0.92191 6.99299
upperback -9.9642 1.55926 0.192899
thorax -9.8151 0.177426 -3.8081
lowerneck -2.18548 -14.5283 -12.1723
upperneck 17.8759 -21.7041 12.7887
head 8.67506 -10.3683 3.95087
rclavicle 1.67973e-014 5.56597e-015
rhumerus -53.1125 -42.3423 -51.1893
rradius 26.6429
rwrist 40.5074
rhand 9.06132 -33.7106
rfingers 7.12502
rthumb 34.2355 -60.4418
lclavicle 1.67973e-014 5.56597e-015
lhumerus -52.2555 37.713 51.3272
lradius 26.4632
lwrist -16.1027
lhand -15.8659 -4.75257
lfingers 7.12502
lthumb 10.3295 24.9737
rfemur -6.59515 26.3498 23.668
rtibia 2.4001
rfoot -10.5036 -23.1697
rtoes 1.31986
lfemur 5.13183 -48.3126 -13.1372
ltibia -4.40212
lfoot -28.8363 56.4043
ltoes 14.4567
130
root 0.641321 17.4983 9.36327 11.2037 -3.81731 -8.37234
lowerback -1.22009 0.948292 6.98064
upperback -9.91815 1.58246 0.194731
thorax -9.70314 0.194679 -3.79803
lowerneck -2.2314 -14.5782 -12.1542
upperneck 17.8303 -21.831 13.055
head 8.71614 -10.4071 4.01028
rclavicle -7.05686e-015 4.13472e-014
rhumerus -50.8275 -39.0181 -55.1785
rradius 27.5359
rwrist 39.2135
rhand 9.03934 -33.5377
rfingers 7.12502
rthumb 34.2146 -60.2736
lclavicle -7.05686e-015 4.13472e-014
lhumerus -51.5516 35.7838 53.4156
lradius 27.4698
lwrist -15.9679
lhand -15.9331 -4.11925
lfingers 7.12502
lthumb 10.2647 25.6103
rfemur -6.89484 26.1816 23.5576
rtibia 2.61491
rfoot -10.3785 -22.5563
rtoes 0.832216
lfemur 5.27816 -48.3977 -13.3
ltibia -4.39542
lfoot -29.9796 56.6764
ltoes 15.4441
131
root 0.647293 17.4977 9.36516 11.239 -4.40068 -8.2564
lowerback -1.25596 0.96689 6.82585
upperback -9.86755 1.59021 0.15146
thorax -9.62189 0.212694 -3.75707
lowerneck -2.16133 -14.5995 -12.1355
upperneck 17.6815 -21.931 13.4028
head 8.70812 -10.4372 4.11098
rclavicle 1.0138e-014 -2.22639e-014
rhumerus -48.8205 -34.969 -59.3767
rradius 28.8964
rwrist 37.5171
rhand 8.97218 -33.5639
rfingers 7.12502
rthumb 34.1508 -60.3141
lclavicle 1.0138e-014 -2.22639e-014
lhumerus -51.0045 33.4388 55.6287
lradius 28.6694
lwrist -16.4388
lhand -15.47 -4.2997
lfingers 7.12502
lthumb 10.7114 25.4072
rfemur -7.06689 26.0928 23.3025
rtibia 2.69867
rfoot -10.1447 -21.9449
rtoes 0.260266
lfemur 5.55347 -48.4214 -13.7695
ltibia -4.35078
lfoot -31.1782 56.9313
ltoes 16.3717
132
root 0.652227 17.4991 9.36459 11.2539 -5.05977 -8.20336
lowerback -1.15647 0.998721 6.73502
upperback -9.83863 1.63038 0.103155
thorax -9.64219 0.236542 -3.76267
lowerneck -2.02657 -14.6549 -11.9578
upperneck 17.42 -22.0444 13.6029
head 8.61551 -10.4824 4.14839
rclavicle -9.93923e-016 1.90833e-014
rhumerus -47.4755 -30.5601 -63.3284
rradius 30.8227
rwrist 35.5131
rhand 8.88876 -33.8424
rfingers 7.12502
rthumb 34.0716 -60.6102
lclavicle -9.93923e-016 1.90833e-014
lhumerus -50.7021 30.9293 57.6673
lradius 29.852
lwrist -17.9953
lhand -14.5625 -6.19609
lfingers 7.12502
lthumb 11.5867 23.4636
rfemur -7.24264 26.0951 23.1283
rtibia 2.82925
rfoot -9.94489 -21.3155
rtoes -0.124851
lfemur 5.78442 -48.1333 -14.0996
ltibia -4.34158
lfoot -32.0353 57.0176
ltoes 17.1117
133
root 0.655056 17.5007 9.3642 11.3269 -5.77049 -8.22789
lowerback -1.15709 0.974399 6.60946
upperback -9.79123 1.58925 0.12821
thorax -9.59332 0.229835 -3.66231
lowerneck -2.04149 -14.7226 -11.6635
upperneck 17.3073 -22.1481 13.5994
head 8.55955 -10.5187 4.09312
rclavicle 3.97569e-015 -1.35174e-014
rhumerus -46.6369 -26.202 -66.8402
rradius 33.0984
rwrist 33.5627
rhand 8.84469 -34.1481
rfingers 7.12502
rthumb 34.0298 -60.9252
lclavicle 3.97569e-015 -1.35174e-014
lhumerus -50.1474 27.3573 60.868
lradius 31.6655
lwrist -18.0595
lhand -14.6018 -5.37773
lfingers 7.12502
lthumb 11.5488 24.2841
rfemur -7.50563 26.1683 23.0221
rtibia 3.02321
rfoot -9.84544 -20.7061
rtoes -0.276947
lfemur 5.96484 -47.8608 -14.2814
ltibia -4.36611
lfoot -33.0597 57.1382
ltoes 17.8902
134
root 0.659883 17.4998 9.36794 11.467 -6.50781 -8.19684
lowerback -1.31537 0.884793 6.41157
upperback -9.75426 1.44595 0.173859
thorax -9.47429 0.181748 -3.48963
lowerneck -2.03206 -14.7462 -11.4159
upperneck 17.2037 -22.1956 13.6191
head 8.50268 -10.5314 4.06232
rclavicle -2.38542e-015 -1.43125e-014
rhumerus -46.2472 -21.9683 -69.944
rradius 35.6468
rwrist 31.8374
rhand 9.02901 -34.3657
rfingers 7.12502
rthumb 34.2048 -61.1037
lclavicle -2.38542e-015 -1.43125e-014
lhumerus -49.8476 23.1619 64.4452
lradius 34.0303
lwrist -17.7392
lhand -14.4093 -2.68879
lfingers 7.12502
lthumb 11.7344 26.9625
rfemur -7.8208 26.2449 22.7983
rtibia 3.15571
rfoot -9.73138 -20.1045
rtoes -0.488683
lfemur 6.24953 -48.1119 -14.6744
ltibia -4.35948
lfoot -34.9883 57.5663
ltoes 19.2852
135
root 0.665284 17.4983 9.37451 11.5867 -7.25372 -8.17632
lowerback -1.43882 0.804956 6.29448
upperback -9.73461 1.32467 0.239856
thorax -9.39297 0.13679 -3.34322
lowerneck -1.89114 -14.7565 -11.4172
upperneck 17.0004 -22.2331 13.7854
head 8.43536 -10.5539 4.12381
rclavicle 9.34288e-015 1.03368e-014
rhumerus -46.3783 -17.9111 -72.5695
rradius 38.5889
rwrist 30.3737
rhand 9.3158 -34.6762
rfingers 7.12502
rthumb 34.4771 -61.3527
lclavicle 9.34288e-015 1.03368e-014
lhumerus -50.0583 19.4204 67.4162
lradius 36.0657
lwrist -18.1351
lhand -14.1349 -2.64394
lfingers 7.12502
lthumb 11.999 26.9921
rfemur -8.07025 26.2695 22.6024
rtibia 3.22175
rfoot -9.58153 -19.4604
rtoes -0.880184
lfemur 6.64448 -48.4753 -15.1644
ltibia -4.35051
lfoot -37.0961 58.0347
ltoes 20.953
136
root 0.668016 17.4972 9.38034 11.6996 -7.98748 -8.23778
lowerback -1.49175 0.701327 6.24885
upperback -9.72958 1.18572 0.379304
thorax -9.37287 0.0783466 -3.15891
lowerneck -1.83279 -14.7324 -11.5505
upperneck 16.9596 -22.2131 13.8682
head 8.4345 -10.5526 4.17553
rclavicle 1.09332e-015 -4.77083e-015
rhumerus -46.9326 -14.1789 -74.7204
rradius 41.8645
rwrist 29.5388
rhand 9.47804 -35.0449
rfingers 7.12502
rthumb 34.6311 -61.6863
lclavicle 1.09332e-015 -4.77083e-015
lhumerus -50.5839 16.1918 69.9968
lradius 37.8015
lwrist -18.4577
lhand -14.083 -5.24142
lfingers 7.12502
lthumb 12.0491 24.3917
rfemur -8.27314 26.2059 22.5434
rtibia 3.26779
rfoot -9.41649 -18.7397
rtoes -1.48965
lfemur 6.88971 -48.4398 -15.4251
ltibia -4.30042
lfoot -38.5788 58.2438
ltoes 22.0787
